<svg width="162" height="44" viewBox="0 0 162 44" fill="none" xmlns="http://www.w3.org/2000/svg">
<g clip-path="url(#clip0_3546_1370)">
<path d="M12.3297 1.07576e-06C10.7023 0.00810565 9.09236 0.337959 7.59194 0.970782C6.09152 1.60361 4.72997 2.52705 3.58505 3.68824C2.44011 4.84941 1.53423 6.22566 0.919124 7.73836C0.304023 9.25107 -0.00823222 10.8706 0.000164968 12.5045V16.6348H10.018V10.6508C10.0179 10.3698 10.0729 10.0915 10.18 9.83183C10.287 9.57216 10.444 9.33623 10.6419 9.13749C10.8398 8.93876 11.0748 8.78118 11.3334 8.67366C11.592 8.56611 11.8692 8.51082 12.1491 8.51087H12.5103C12.7902 8.51082 13.0674 8.56613 13.326 8.67366C13.5847 8.78118 13.8196 8.93876 14.0177 9.13749C14.2156 9.33622 14.3725 9.57216 14.4797 9.83183C14.5867 10.0915 14.6418 10.3698 14.6418 10.6508V26.6925C15.9574 26.6925 17.2601 26.4324 18.4755 25.927C19.6909 25.4215 20.7954 24.6806 21.7256 23.7468C22.6559 22.8128 23.3937 21.704 23.8972 20.4838C24.4006 19.2636 24.6596 17.9556 24.6596 16.6348V12.5045C24.6668 9.19403 23.3683 6.01532 21.0481 3.66309C19.9097 2.50233 18.5525 1.58066 17.0556 0.951768C15.5589 0.322877 13.9523 -0.000680881 12.3297 1.07576e-06Z" fill="#F2F2F2"/>
<path d="M12.5107 34.8128H12.1496C11.8697 34.8128 11.5926 34.7574 11.334 34.65C11.0754 34.5424 10.8404 34.3848 10.6425 34.186C10.4446 33.9874 10.2876 33.7516 10.1806 33.492C10.0735 33.2324 10.0184 32.954 10.0185 32.6731V16.6316C8.70286 16.6315 7.40012 16.8915 6.18465 17.3968C4.96919 17.9023 3.86481 18.643 2.93455 19.577C2.00429 20.511 1.26637 21.6198 0.762966 22.8401C0.259563 24.0603 0.000533289 25.3683 0.000646497 26.6891V30.7619C-0.0160429 32.3982 0.29055 34.0216 0.902692 35.5381C1.51483 37.0547 2.42037 38.4344 3.56695 39.5974C4.71353 40.7603 6.07838 41.6835 7.58258 42.3136C9.08679 42.9437 10.7005 43.2682 12.3304 43.2682C13.9603 43.2682 15.5739 42.9437 17.0782 42.3136C18.5823 41.6835 19.9473 40.7603 21.0938 39.5974C22.2404 38.4344 23.1459 37.0547 23.758 35.5381C24.3702 34.0216 24.6767 32.3982 24.66 30.7619V26.6891H14.6423V32.6731C14.6423 32.9542 14.5871 33.2324 14.4801 33.492C14.3729 33.7516 14.2158 33.9875 14.0179 34.1862C13.82 34.3849 13.5851 34.5424 13.3264 34.65C13.0678 34.7574 12.7906 34.8128 12.5107 34.8128Z" fill="#F2F2F2"/>
<path d="M41.7836 12.6985H38.2725V30.5811H48.5777V27.2097H41.784L41.7836 12.6985Z" fill="#F2F2F2"/>
<path d="M59.8221 19.3219C59.3269 18.704 58.6928 18.2127 57.9718 17.8887C57.2509 17.5645 56.4636 17.4166 55.6746 17.4569C54.8502 17.4505 54.0341 17.6216 53.2812 17.9588C52.5284 18.2961 51.8564 18.7916 51.3107 19.4118C50.1388 20.73 49.4912 22.435 49.4912 24.202C49.4912 25.9689 50.1388 27.6739 51.3107 28.9922C51.8565 29.6122 52.5286 30.1075 53.2815 30.4446C54.0343 30.7816 54.8503 30.9527 55.6746 30.9462C57.4559 30.9462 58.8385 30.3245 59.8221 29.0814V30.5887H63.1049V17.8155H59.8221V19.3219ZM58.8176 26.7947C58.4865 27.1274 58.091 27.3884 57.6556 27.5619C57.2202 27.7355 56.754 27.8177 56.2857 27.8035C55.8192 27.8186 55.3547 27.7368 54.9211 27.5631C54.4876 27.3896 54.0945 27.1279 53.7662 26.7947C53.1273 26.0833 52.7737 25.1593 52.7737 24.2014C52.7737 23.2433 53.1273 22.3195 53.7662 21.6081C54.0946 21.2751 54.4878 21.0137 54.9213 20.8402C55.3547 20.6666 55.8193 20.5847 56.2857 20.5995C56.7539 20.5856 57.22 20.6679 57.6554 20.8413C58.0908 21.0147 58.4864 21.2756 58.8176 21.6081C59.4638 22.316 59.8221 23.2411 59.8221 24.2014C59.8221 25.1615 59.4638 26.0868 58.8176 26.7947Z" fill="#F2F2F2"/>
<path d="M71.5645 26.3895L68.2461 17.8042H64.6582L69.8729 30.1692C69.6547 30.9071 69.2256 31.5644 68.6387 32.0597C68.022 32.4796 67.2821 32.6778 66.539 32.6221V35.6881C67.9878 35.8226 69.4362 35.4276 70.6181 34.5757C71.7099 33.7484 72.5869 32.4229 73.2491 30.5994L77.8876 17.8051H74.3761L71.5645 26.3895Z" fill="#F2F2F2"/>
<path d="M84.9937 17.4545C84.0988 17.4229 83.2072 17.5779 82.375 17.91C81.543 18.2421 80.7886 18.7439 80.1595 19.3837C78.9449 20.6947 78.2717 22.42 78.2764 24.2105C78.2809 26.0009 78.963 27.7228 80.1845 29.0274C81.457 30.3043 83.1449 30.9429 85.2484 30.9432C87.6905 30.9432 89.5395 30.0322 90.7954 28.2104L88.1492 26.677C87.8128 27.1057 87.3776 27.4459 86.8811 27.6684C86.3847 27.891 85.8418 27.9891 85.2992 27.9543C83.348 27.9543 82.1521 27.154 81.7111 25.5533H91.3043C91.3862 25.1064 91.4289 24.653 91.4314 24.1986C91.48 22.4193 90.8262 20.6931 89.6124 19.3959C89.0244 18.7609 88.3083 18.2591 87.5118 17.9243C86.7153 17.5896 85.8568 17.4293 84.9937 17.4545ZM81.6605 22.9983C81.8058 22.2477 82.2113 21.5732 82.8053 21.0945C83.4367 20.6259 84.2084 20.3871 84.9933 20.4177C85.7105 20.4084 86.4115 20.6327 86.9912 21.0569C87.6077 21.5335 88.0214 22.2272 88.1488 22.9979L81.6605 22.9983Z" fill="#F2F2F2"/>
<path d="M96.9994 20.0038V17.8062H93.7168V30.5798H96.9994V24.4742C96.9994 23.2481 97.3938 22.3709 98.1824 21.8428C98.9722 21.3147 99.9279 21.0963 100.867 21.2296V17.5519C100.042 17.5414 99.2295 17.7531 98.5134 18.1649C97.8063 18.5768 97.2694 19.2292 96.9994 20.0038Z" fill="#F2F2F2"/>
<path d="M116.87 15.4642V12.6985H105.194V16.0709H112.421L105.006 27.7648V30.5807H117.012V27.2092H109.454L116.87 15.4642Z" fill="#F2F2F2"/>
<path d="M124.765 17.4545C123.87 17.4229 122.979 17.5779 122.146 17.91C121.314 18.2421 120.56 18.7439 119.931 19.3837C118.716 20.6947 118.043 22.4201 118.047 24.2107C118.052 26.0011 118.734 27.7229 119.956 29.0274C121.229 30.3043 122.916 30.9429 125.019 30.9432C127.462 30.9432 129.311 30.0322 130.567 28.2104L127.92 26.677C127.584 27.1056 127.149 27.4458 126.652 27.6683C126.156 27.8909 125.613 27.989 125.071 27.9543C123.119 27.9543 121.923 27.154 121.483 25.5533H131.076C131.158 25.1063 131.2 24.653 131.203 24.1986C131.251 22.4193 130.598 20.6931 129.384 19.3959C128.796 18.7609 128.08 18.2591 127.283 17.9243C126.487 17.5896 125.628 17.4293 124.765 17.4545ZM121.432 22.9983C121.577 22.2477 121.983 21.5731 122.577 21.0945C123.209 20.6257 123.98 20.3869 124.765 20.4179C125.483 20.4081 126.184 20.6324 126.763 21.0569C127.38 21.5335 127.793 22.2272 127.92 22.9979L121.432 22.9983Z" fill="#F2F2F2"/>
<path d="M136.771 20.0038V17.8062H133.488V30.5798H136.771V24.4742C136.771 23.2481 137.165 22.3709 137.954 21.8428C138.743 21.3147 139.698 21.0965 140.638 21.2296V17.5519C139.814 17.5414 139 17.7531 138.284 18.1649C137.577 18.5768 137.04 19.2291 136.771 20.0038Z" fill="#F2F2F2"/>
<path d="M148.124 17.4522C146.583 17.4692 145.096 18.0209 143.916 19.0136C142.735 20.0064 141.932 21.3789 141.645 22.8981C141.358 24.4172 141.602 25.9894 142.339 27.3479C143.075 28.7063 144.257 29.767 145.682 30.35C147.109 30.9328 148.693 31.0022 150.165 30.546C151.636 30.0899 152.905 29.1362 153.756 27.8473C154.608 26.5583 154.988 25.0136 154.833 23.475C154.678 21.9364 153.997 20.4992 152.907 19.407C152.285 18.7696 151.54 18.2672 150.717 17.9308C149.894 17.5946 149.012 17.4317 148.124 17.4522ZM150.592 26.7258C150.27 27.052 149.885 27.3087 149.46 27.4799C149.036 27.651 148.581 27.733 148.124 27.7208C147.668 27.7339 147.214 27.6523 146.792 27.481C146.369 27.3097 145.986 27.0527 145.667 26.7258C145.037 26.0354 144.687 25.1329 144.687 24.1964C144.687 23.2602 145.037 22.3578 145.667 21.6672C145.986 21.3405 146.369 21.0834 146.792 20.9122C147.214 20.741 147.668 20.6591 148.124 20.672C148.581 20.66 149.035 20.7422 149.46 20.9134C149.885 21.0845 150.27 21.3411 150.592 21.6672C151.229 22.3538 151.584 23.2577 151.584 24.1964C151.584 25.1353 151.229 26.0393 150.592 26.7258Z" fill="#F2F2F2"/>
<path d="M161.753 26.6509H157.758V30.5851H161.753V26.6509Z" fill="#F2F2F2"/>
<path d="M161.753 26.6509H157.758V30.5851H161.753V26.6509Z" fill="#F2F2F2"/>
</g>
<defs>
<clipPath id="clip0_3546_1370">
<rect width="162" height="44" fill="white"/>
</clipPath>
</defs>
</svg>
